<svg xmlns="http://www.w3.org/2000/svg" xmlns:xlink="http://www.w3.org/1999/xlink" viewBox="0 0 100 125" version="1.1" x="0px" y="0px"><title>ic-3</title><desc>Created with Sketch.</desc><g stroke="none" stroke-width="1" fill="none" fill-rule="evenodd"><path d="M48.4467694,38.4924955 C48.7127694,38.4624955 49.6997694,38.4604955 49.8727694,38.2534955 C48.8677694,39.4584955 48.6087694,41.0624955 49.5877694,42.4994955 C50.2927694,43.7454955 52.6037694,44.2624955 53.8367694,43.4274955 C52.2067694,44.9314955 51.9077694,47.5204955 53.1557694,49.2524955 C54.3967694,50.9764955 57.0327694,51.6604955 59.0987694,50.8014955 C58.2317694,52.9724955 57.8087694,54.4874955 58.9867694,56.4414955 C59.5727694,57.4134955 60.7077694,58.3214955 61.8747694,58.7534955 C63.2227694,59.2514955 64.4677694,60.0574955 65.2077694,61.2904955 C65.4327694,61.6644955 65.7217694,62.0054955 66.0617694,62.2884955 C67.2427694,63.2734955 68.9057694,63.6494955 70.5227694,63.6484955 C73.1787694,63.6444955 75.9887694,62.5834955 77.5387694,60.5114955 C79.0927694,58.4314955 79.0067694,55.3014955 76.9767694,53.7674955 C79.3777694,52.9304955 80.8507694,50.3244955 80.6147694,47.9624955 C80.3767694,45.5884955 78.6637694,43.5444955 76.4817694,42.3764955 C78.8857694,41.4924955 80.3967694,38.7274955 79.7337694,36.4074955 C79.0667694,34.0734955 76.3037694,32.5454955 73.7827694,33.1284955 C75.7297694,30.6594955 75.6137694,26.9134955 73.5007694,24.6674955 C71.3737694,22.4064955 67.4687694,21.9254955 64.7047694,23.5934955 C67.5927694,16.2814955 53.1767694,11.9234955 50.8417694,19.7304955 C51.3557694,18.0124955 48.6927694,17.0524955 47.5647694,16.8894955 C45.6847694,16.6184955 43.8097694,17.0824955 42.1077694,17.9224955 C40.7207694,18.6074955 39.4337694,19.5154955 38.3697694,20.6234955 C37.2687694,21.7704955 36.4067694,23.1314955 35.9157694,24.6824955 C34.5797694,28.9014955 36.1517694,33.3424955 39.5897694,36.0344955 C39.8427694,36.2334955 40.1087694,36.4124955 40.3787694,36.5874955 C40.9517694,36.9614955 41.5577694,37.2784955 42.1867694,37.5464955 C44.1697694,38.3934955 46.3667694,38.7254955 48.4467694,38.4924955 M30.7257694,52.0664955 C33.1047694,52.0664955 35.0327694,49.4484955 35.0327694,46.2184955 C35.0327694,42.9894955 33.1037694,40.3704955 30.7257694,40.3704955 C26.1507694,40.3704955 25.8417694,52.0674955 30.7257694,52.0664955 M7.64576937,60.4854955 C6.98776937,59.5414955 6.82176937,58.3374955 7.19776937,57.2524955 C7.87376937,55.0914955 8.51976937,52.8714955 9.20576937,50.5214955 C13.4547694,35.9494955 18.2697694,19.4314955 31.9437694,11.0804955 C43.0307694,4.31249546 56.6197694,3.13349546 69.2317694,7.84949546 C83.8897694,13.3304955 92.9957694,26.5894955 92.9957694,42.4504955 C92.9957694,55.4294955 88.0857694,63.5724955 83.7537694,70.7554955 C79.9607694,77.0444955 76.6847694,82.4754955 76.6847694,90.3354955 L76.6847694,94.7594955 L72.1847694,94.7594955 L72.1847694,90.3354955 C72.1847694,81.2244955 76.1067694,74.7214955 79.8997694,68.4314955 C84.1257694,61.4244955 88.4957694,54.1784955 88.4957694,42.4504955 C88.4957694,28.5144955 80.5097694,16.8714955 67.6557694,12.0644955 C56.3487694,7.83749546 44.1867694,8.87749546 34.2897694,14.9214955 C22.1017694,22.3644955 17.5457694,37.9924955 13.5257694,51.7814955 C12.9457694,53.7694955 12.3927694,55.6654955 11.8237694,57.5244955 L14.6887694,57.5244955 C20.6917694,57.5244955 25.5777694,62.3804955 25.6347694,68.3704955 C31.6807694,69.3734955 36.3077694,68.0384955 40.4417694,64.1194955 L43.5377694,67.3864955 C39.4487694,71.2614955 34.7267694,73.1804955 29.2227694,73.1804955 C28.0647694,73.1804955 26.8687694,73.0854955 25.6397694,72.9164955 L25.6397694,80.0124955 C25.6397694,83.9844955 29.0127694,85.7624955 32.3567694,85.7624955 L36.2417694,85.7624955 C41.2037694,85.7624955 45.2397694,89.7984955 45.2397694,94.7594955 L40.7397694,94.7594955 C40.7397694,92.2804955 38.7217694,90.2624955 36.2417694,90.2624955 L32.3567694,90.2624955 C25.8577694,90.2624955 21.1397694,85.9514955 21.1397694,80.0124955 L21.1397694,68.4754955 C21.1397694,64.9184955 18.2467694,62.0244955 14.6887694,62.0244955 L10.5957694,62.0244955 C9.42176937,62.0244955 8.31876937,61.4494955 7.64576937,60.4854955" fill="#000000"/></g><text x="0" y="115" fill="#000000" font-size="5px" font-weight="bold" font-family="'Helvetica Neue', Helvetica, Arial-Unicode, Arial, Sans-serif">Created by Marek Polakovic</text><text x="0" y="120" fill="#000000" font-size="5px" font-weight="bold" font-family="'Helvetica Neue', Helvetica, Arial-Unicode, Arial, Sans-serif">from the Noun Project</text></svg>